<?xml version="1.0" standalone="no"?>
<!DOCTYPE svg PUBLIC "-//W3C//DTD SVG 1.1//EN" "http://www.w3.org/Graphics/SVG/1.1/DTD/svg11.dtd" >
<svg xmlns="http://www.w3.org/2000/svg">
<metadata></metadata>
<defs>
<font id="felix007_mediumregular" horiz-adv-x="2048" >
<font-face units-per-em="2048" ascent="1571" descent="-477" />
<missing-glyph horiz-adv-x="552" />
<glyph />
<glyph />
<glyph unicode="&#xd;" horiz-adv-x="512" />
<glyph unicode=" "  horiz-adv-x="552" />
<glyph unicode="&#x09;" horiz-adv-x="552" />
<glyph unicode="&#xa0;" horiz-adv-x="552" />
<glyph unicode="!" horiz-adv-x="483" d="M102 96q0 51 36 87t87 36q50 0 88 -36q37 -36 37 -87t-37 -88t-88 -37t-87 37q-36 38 -36 88zM127 334v792h178v-792h-178z" />
<glyph unicode="&#x22;" horiz-adv-x="641" d="M102 752v395h191l-103 -395h-88zM389 752v395h191l-103 -395h-88z" />
<glyph unicode="#" horiz-adv-x="974" d="M25 266l22 131h146l47 271h-142l25 131h139l45 266h166l-45 -266h207l45 266h168l-45 -266h147l-24 -131h-146l-45 -271h139l-24 -131h-137l-45 -266h-168l45 266h-207l-43 -266h-168l43 266h-145zM360 397h207l45 271h-206z" />
<glyph unicode="$" horiz-adv-x="825" d="M102 215q150 -78 260 -78q64 0 111 39q47 41 47 96q0 57 -65 125l-142 121q-200 170 -200 313q0 111 102 187q53 41 123 47v145h170v-145l142 -27l22 -4l8 -59l10 -101q-123 54 -219 54q-61 0 -102 -25q-50 -30 -50 -96q0 -65 132 -176q114 -98 190 -178q82 -85 82 -193 q0 -92 -60 -159q-58 -65 -155 -91v-155h-170v145q-102 3 -221 51l-6 66z" />
<glyph unicode="%" horiz-adv-x="1421" d="M82 739q0 146 51 234q63 110 195 110q131 0 196 -110q51 -86 51 -232q0 -147 -51 -233q-64 -111 -196 -111q-130 0 -195 111q-51 86 -51 231zM195 739q0 -91 24 -159q34 -97 109 -97q113 0 131 195q4 36 4 63q0 256 -135 256q-133 0 -133 -258zM369 0l567 1065h119 l-570 -1065h-116zM846 324q0 153 55 241q64 103 193 103q245 0 245 -342q0 -344 -245 -344q-248 0 -248 342zM958 324q0 -254 136 -254q114 0 129 198q2 24 2 58q0 256 -131 256q-95 0 -123 -142q-13 -65 -13 -116z" />
<glyph unicode="&#x26;" horiz-adv-x="1392" d="M78 266q0 144 119 260q76 76 241 170q-65 190 -65 262q0 123 80 203q81 84 202 84q108 0 180 -61q72 -62 72 -160q0 -116 -92 -199q-56 -50 -197 -116q104 -207 244 -381q170 212 170 336q0 49 -37 67q-28 13 -82 17v36h400v-36q-65 -9 -92 -25q-49 -27 -82 -86 q-83 -145 -232 -361q35 -64 117 -116q86 -54 156 -54q61 0 102 25q23 15 74 76l26 -23q0 -59 -102 -145q-78 -66 -174 -66q-157 0 -313 170q-206 -170 -410 -170q-140 0 -223 77q-82 78 -82 216zM248 332q0 -107 67 -180q69 -78 172 -78q121 0 258 119q-125 151 -280 442 q-102 -70 -150 -125q-67 -76 -67 -178zM520 1028q0 -103 74 -262q213 122 213 266q0 68 -39 111q-39 45 -104 45q-144 0 -144 -160z" />
<glyph unicode="'" horiz-adv-x="202" d="M70 752v395h170l-103 -395h-67z" />
<glyph unicode="(" horiz-adv-x="452" d="M113 514q0 342 112 694h146q-95 -332 -95 -694q0 -160 25 -360q21 -169 70 -334h-146q-61 208 -84 348q-28 181 -28 346z" />
<glyph unicode=")" horiz-adv-x="452" d="M82 -180q94 310 94 694q0 381 -94 694h143q56 -172 84 -346q31 -193 31 -348q0 -349 -115 -694h-143z" />
<glyph unicode="*" horiz-adv-x="759" d="M102 1001l41 97l197 -84l-16 215h114l-18 -215l196 84l41 -97l-202 -59l143 -164l-82 -67l-135 182l-135 -182l-82 67l145 164z" />
<glyph unicode="+" horiz-adv-x="737" d="M66 481v131h237v234h131v-234h238v-131h-238v-241h-131v241h-237z" />
<glyph unicode="," horiz-adv-x="405" d="M102 143h191l-103 -395h-88v395z" />
<glyph unicode="-" horiz-adv-x="737" d="M66 481v131h606v-131h-606z" />
<glyph unicode="." horiz-adv-x="462" d="M102 96q0 51 36 87t87 36q50 0 88 -36q37 -36 37 -87t-37 -88t-88 -37t-87 37q-36 38 -36 88z" />
<glyph unicode="/" horiz-adv-x="655" d="M0 0l514 1065h141l-518 -1065h-137z" />
<glyph unicode="0" horiz-adv-x="972" d="M113 543q0 257 93 402q94 145 279 145q99 0 173.5 -43t117.5 -122q84 -155 84 -382q0 -209 -43 -314q-42 -102 -133 -166q-90 -63 -199 -63q-98 0 -172 42.5t-117 119.5q-83 150 -83 381zM313 466l4 -76q3 -40 10 -77q20 -87 50 -122q40 -45 110 -48q105 -4 148 135 q12 39 16 87q5 53 6 88q2 48 2 88q0 56 -1 75q0 35 -4 76q-3 48 -9 76q-17 83 -50 122q-45 53 -108 50q-102 -3 -140 -106q-27 -74 -30 -142l-4 -75v-74v-77z" />
<glyph unicode="1" horiz-adv-x="976" d="M233 842q-1 34 41 133l140 110h182v-1085h-193v913l-129 -84q-6 -3 -19 -9q-11 -2 -16.5 3.5t-5.5 18.5z" />
<glyph unicode="2" horiz-adv-x="976" d="M119 0v135q177 186 360 391q166 187 166 283q0 76 -82 113q-63 28 -145 28q-114 0 -277 -45q-6 -1 -19 -2q-44 6 20 118l12 20l6 10q20 4 54 9.5t120 14.5t151 8q150 0 246 -51q127 -67 127 -201q0 -95 -76 -208q-70 -104 -184 -232q-88 -102 -231 -254h479v-137h-727z " />
<glyph unicode="3" horiz-adv-x="976" d="M111 176q151 -57 295 -57q106 0 176 45q86 53 86 147q0 78 -17 115q-15 35 -56.5 49.5t-125.5 16.5q-28 1 -111 -9v144l43 -4l41 -5q98 0 144 27q20 12 30 36q15 38 15 110q0 161 -228 161q-125 0 -245 -34q-8 -1 -24 -4q-44 1 -13 61q10 20 28 44l31 42q118 29 256 22 q206 -11 304 -73.5t98 -194.5q0 -207 -224 -260v-4q120 -11 186 -78t66 -180q0 -180 -172 -262q-105 -49 -260 -49q-136 0 -305 41z" />
<glyph unicode="4" horiz-adv-x="976" d="M102 301v156l387 587q3 12 23 24q15 10 40 13q64 8 177 -37v-616h172v-127h-172v-301h-182v301h-445zM244 428h315v483z" />
<glyph unicode="5" horiz-adv-x="976" d="M135 162q147 -43 248 -43q104 0 184 53q92 62 92 162q0 192 -272 192q-56 0 -233 -22q18 343 28 561h641h31q68 -11 6 -93q-22 -28 -37 -44q-6 -5 -11 -9t-11.5 -7t-10.5 -5t-12.5 -3t-13 -2t-17 -1h-18.5h-24h-28q-149 0 -247 16l-65 11l-17 -305q88 12 137 12 q166 0 267 -68q116 -77 116 -237q0 -173 -151 -267q-127 -81 -309 -81q-116 0 -254 30z" />
<glyph unicode="6" horiz-adv-x="976" d="M96 342q0 121 77 278q75 152 251 404q2 5 7 15q41 55 182 1l42 -16q-196 -241 -287 -400q-89 -158 -89 -280q0 -106 54.5 -167.5t151.5 -61.5q88 0 148 54q61 55 61 140q0 209 -178 209q-58 0 -131 -16l78 137q34 6 100 6q149 0 233 -85q85 -85 85 -234q0 -141 -95 -236 q-105 -108 -294 -108q-174 0 -283 90q-113 95 -113 270z" />
<glyph unicode="7" horiz-adv-x="976" d="M100 960q4 40 39 105h711q9 -1 28 -3q20 -5 25 -15t0.5 -22.5t-17.5 -38.5q-5 -8 -7 -13l-29 -55q-261 -608 -399 -918h-232l424 928h-504q-12 -3 -27 4.5t-12 27.5z" />
<glyph unicode="8" horiz-adv-x="976" d="M113 295q0 94 59 160.5t158 87.5q-183 73 -183 254q0 143 115 219q53 36 104 51.5t121 15.5q127 0 226 -67q114 -78 114 -219q0 -185 -180 -252q100 -24 158.5 -90t58.5 -160q0 -164 -123 -244q-56 -37 -114.5 -53t-139.5 -16q-79 0 -136 16.5t-115 54.5 q-123 81 -123 242zM291 307q0 -92 52 -145t144 -53q93 0 146 52.5t53 145.5q0 86 -68 135q-33 24 -61 33.5t-70 9.5t-70 -9t-61 -32q-65 -45 -65 -137zM319 782q0 -89 42.5 -136.5t125.5 -47.5q84 0 127 47.5t43 136.5q0 81 -44.5 127.5t-125.5 46.5q-77 0 -122.5 -47.5 t-45.5 -126.5z" />
<glyph unicode="9" horiz-adv-x="976" d="M96 737q0 167 117 260q108 86 274 86q172 0 281 -90q113 -95 113 -266q0 -242 -320 -727h-233q372 478 372 723q0 107 -55 167t-156 60q-88 0 -147 -55q-59 -56 -59 -139q0 -56 1 -73q2 -25 9 -54q10 -41 37.5 -56.5t87.5 -17.5q22 -1 123 18q6 0 18 -1q45 -15 -96 -134 q-59 -10 -103 -10q-139 0 -201.5 76.5t-62.5 232.5z" />
<glyph unicode=":" horiz-adv-x="473" d="M113 96q0 51 36 87t87 36t87 -36q37 -36 37 -87t-37 -88q-36 -37 -87 -37t-87 37q-36 38 -36 88zM113 711q0 51 36 87t87 36t87 -36q37 -36 37 -87t-37 -88q-36 -37 -87 -37t-87 37t-36 88z" />
<glyph unicode=";" horiz-adv-x="462" d="M102 711q0 51 36 87t87 36q50 0 88 -36q37 -36 37 -87t-37 -88t-88 -37t-87 37t-36 88zM127 143h192l-102 -395h-90v395z" />
<glyph unicode="&#x3c;" horiz-adv-x="888" d="M160 532q68 56 144 145q79 90 155 189q81 104 108 135h64l-262 -469l262 -471h-64z" />
<glyph unicode="=" horiz-adv-x="737" d="M66 358v131h606v-131h-606zM66 604v131h606v-131h-606z" />
<glyph unicode="&#x3e;" horiz-adv-x="923" d="M283 61l262 471l-262 469h63q41 -50 107 -135q187 -237 301 -334l-408 -471h-63z" />
<glyph unicode="?" horiz-adv-x="860" d="M82 926l55 141q11 2 29 7q15 3 31 7t30 7q31 7 68 11q35 5 88 5q147 0 246 -51q129 -65 129 -195q0 -94 -80 -180l-139 -150q-50 -53 -56 -131q-4 -55 -4 -71l-178 -15q0 23 12 119q11 89 127 213q117 123 117 195q0 139 -219 139q-86 0 -256 -51zM287 96q0 51 37 87 q38 36 88 36q51 0 87 -36t36 -87q0 -50 -36 -88q-36 -37 -87 -37t-88 37t-37 88z" />
<glyph unicode="@" horiz-adv-x="1982" d="M125 485q0 405 276 672q280 268 699 268q306 0 504 -202q196 -199 196 -525q0 -285 -158 -510q-154 -221 -358 -221q-198 0 -207 156q-3 40 17 141q-129 -150 -179 -194q-121 -103 -210 -103q-90 0 -144 76q-45 64 -45 168q0 227 176 481q187 269 400 269q60 0 100 -51 q43 -52 53 -124l41 134l168 20l-192 -649q-27 -91 -27 -152q0 -102 74 -102q157 0 288 207q134 211 134 463q0 278 -189 473q-185 188 -438 188q-392 0 -643 -266q-246 -258 -246 -637q0 -343 223 -584q233 -254 592 -254q575 0 809 566h62q-135 -306 -334 -459 q-218 -168 -549 -168q-408 0 -656 266q-237 255 -237 653zM655 242q0 -144 113 -144q146 0 293 240q137 224 137 418q0 57 -45 102q-46 49 -88 49q-156 0 -291 -250q-119 -222 -119 -415z" />
<glyph unicode="A" horiz-adv-x="1439" d="M40 -19l617 1439h126l617 -1439l-152 -1l-257 600h-542l-257 -600zM510 720h422l-212 493z" />
<glyph unicode="B" horiz-adv-x="1038" d="M40 -20v1440h570q152 0 261 -109t109 -261q0 -153 -108 -261q-40 -40 -59 -51q7 -4 44 -41q123 -123 123 -297t-123 -297t-297 -123h-520zM180 120h380q116 0 198 82t82 198t-82 198t-198 82h-380v-560zM180 820h380h30q116 0 183 67t67 163t-67 163t-163 67h-430v-460z " />
<glyph unicode="C" horiz-adv-x="1320" d="M40 700q0 298 211 509t509 211t509 -211l9 -9v-227q-70 101 -107 138q-169 169 -411 169q-241 0 -411 -170q-169 -169 -169 -410q0 -242 169 -411t411 -169q241 0 411 170q39 40 107 137v-227l-9 -9q-211 -211 -509 -211t-509 211t-211 509z" />
<glyph unicode="D" horiz-adv-x="1320" d="M40 -20v1440h520q298 0 509 -211t211 -509t-211 -509t-509 -211h-520zM180 120h380q241 0 410 169q170 170 170 411q0 240 -170 410t-410 170h-380v-1160z" />
<glyph unicode="E" horiz-adv-x="920" d="M40 -20v1440h840v-140h-700v-460h700v-140h-700v-560h700v-140h-840z" />
<glyph unicode="F" horiz-adv-x="920" d="M40 -20v1440h840v-140h-700v-460h700v-140h-700v-700h-140z" />
<glyph unicode="G" horiz-adv-x="1320" d="M40 700q0 298 211 509t509 211t509 -211l9 -9v-227q-70 101 -107 138q-169 169 -411 169q-241 0 -411 -170q-169 -169 -169 -410q0 -242 169 -411t411 -169q224 0 380 141v419h-400v140h540v-840h-140v105q-149 -105 -380 -105q-298 0 -509 211t-211 509z" />
<glyph unicode="H" horiz-adv-x="1118" d="M40 -20v1440h140v-600h760v600h140v-1440h-140v700h-760v-700h-140z" />
<glyph unicode="I" horiz-adv-x="340" d="M100 -20v1440h140v-1440h-140z" />
<glyph unicode="J" horiz-adv-x="821" d="M40 370h140q0 -116 67 -183t163 -67t163 67t67 163v930h-100v140h240v-1070q0 -153 -109 -262q-108 -108 -261 -108q-154 0 -262 108t-108 282z" />
<glyph unicode="K" horiz-adv-x="1069" d="M62 -20v1440h140v-632l630 632h198l-720 -720l720 -720h-196l-632 630v-630h-140z" />
<glyph unicode="L" horiz-adv-x="1019" d="M40 -20v1440h140v-1300h800v-140h-940z" />
<glyph unicode="M" horiz-adv-x="1832" d="M40 -20l411 1440h131l335 -1172l334 1172h131l411 -1440h-146l-331 1156l-334 -1156h-131l-334 1156l-331 -1156h-146z" />
<glyph unicode="N" horiz-adv-x="1218" d="M40 -20v1440h153l847 -1213v1213h140v-1440h-152l-848 1213v-1213h-140z" />
<glyph unicode="O" horiz-adv-x="1522" d="M40 700q0 298 211 509t509 211t509 -211t211 -509t-211 -509t-509 -211t-509 211t-211 509zM180 700q0 -242 169 -411t411 -169q241 0 410 169q170 170 170 411q0 240 -170 410t-410 170q-241 0 -411 -170q-169 -169 -169 -410z" />
<glyph unicode="P" horiz-adv-x="1019" d="M40 -20v1440h520q174 0 297 -123t123 -297t-123 -297t-297 -123h-380v-600h-140zM180 720h380q116 0 198 82t82 198t-82 198t-198 82h-380v-560z" />
<glyph unicode="Q" horiz-adv-x="1545" d="M40 700q0 298 211 509t509 211t509 -211t211 -509q0 -284 -180 -478l203 -242h-182l-124 147q-179 -147 -437 -147q-298 0 -509 211t-211 509zM180 700q0 -242 169 -411t411 -169q209 0 348 115l-491 585h182l410 -489q131 146 131 369q0 240 -170 410t-410 170 q-241 0 -411 -170q-169 -169 -169 -410z" />
<glyph unicode="R" horiz-adv-x="1045" d="M40 -20v1440h520q174 0 297 -123t123 -297t-123 -297t-296 -123h-112l557 -600h-193l-670 721l21 20l397 -1q115 0 197 82t82 198t-82 198t-198 82h-380v-1300h-140z" />
<glyph unicode="S" horiz-adv-x="920" d="M40 375q0 13 3 45h140q-3 -33 -3 -45q0 -106 82 -181t198 -75t198 75t82 181q0 107 -81 180t-199 75q-176 2 -297 115q-123 115 -123 280q0 163 123 279q124 116 297 116t297 -116q123 -116 123 -279q0 -13 -3 -45h-140q3 33 3 45q0 106 -82 181t-198 75t-198 -75 t-82 -181q0 -107 81 -180t199 -75q176 -2 297 -115q123 -116 123 -280q0 -165 -123 -280q-122 -115 -297 -115t-297 115q-123 115 -123 280z" />
<glyph unicode="T" horiz-adv-x="1019" d="M40 1280v140h940v-140h-400v-1300h-140v1300h-400z" />
<glyph unicode="U" horiz-adv-x="1019" d="M40 450v970h140v-970q0 -138 96 -234t234 -96q137 0 233 96q97 97 97 234v970h140v-970q0 -194 -138 -332t-332 -138t-332 138t-138 332z" />
<glyph unicode="V" horiz-adv-x="1439" d="M40 1419l152 1l528 -1233l528 1233l152 -1l-617 -1439h-126z" />
<glyph unicode="W" horiz-adv-x="1832" d="M40 1420h146l331 -1156l334 1156h131l334 -1156l331 1156h146l-411 -1440h-131l-334 1172l-335 -1172h-131z" />
<glyph unicode="X" horiz-adv-x="1258" d="M41 -20l504 720l-504 720h171l417 -598l419 598h170l-503 -720l503 -720h-170l-419 598l-417 -598h-171z" />
<glyph unicode="Y" horiz-adv-x="1258" d="M41 1420h171l417 -598l419 598h170l-511 -731l-8 -11v-698h-140v700l-6 8z" />
<glyph unicode="Z" horiz-adv-x="1258" d="M41 -20l909 1300h-891v140h1159l-908 -1300h889v-140h-1158z" />
<glyph unicode="[" horiz-adv-x="671" d="M201 -416v1782h372v-90h-161v-1602h161v-90h-372z" />
<glyph unicode="\" horiz-adv-x="563" d="M-2 1425h96l467 -1458h-96z" />
<glyph unicode="]" horiz-adv-x="671" d="M98 -326h162v1602h-162v90h373v-1782h-373v90z" />
<glyph unicode="^" horiz-adv-x="1015" d="M25 672l450 753h66l450 -753h-129l-356 598l-359 -598h-122z" />
<glyph unicode="_" horiz-adv-x="1126" d="M0 -205h1126v-94h-1126v94z" />
<glyph unicode="`" horiz-adv-x="411" d="M23 1815h258l108 -363h-57z" />
<glyph unicode="a" horiz-adv-x="818" d="M40 350q0 153 108 261q109 109 262 109q152 0 264 -110l-1 1q-1 1 -4 3.5t-7 6.5l-10 10l-12 12v7q0 96 -67 163t-163 67h-118l-25 62l-32 78h175q152 0 261 -109t109 -261v-670h-140v77l2 2l2 2l2 2l2 2l2 2l2 2l2 2l2 2l2 2l2 2l2 2l2 2l2 2l2 2l2 2l2 2 q-109 -109 -262 -109q-154 0 -262 108t-108 262zM180 350q0 -96 67 -163t163 -67t163 67t67 163t-67 163t-163 67t-163 -67t-67 -163z" />
<glyph unicode="b" horiz-adv-x="1118" d="M38 -20v1440h140v-561l-4 -7q2 1 17 16q152 152 367 152q216 0 367 -153q153 -151 153 -367q0 -215 -153 -368q-152 -152 -367 -152q-214 0 -367 153q-19 19 -18 15q1 -1 5 -7v-161h-140zM178 500q0 -158 111 -269t269 -111t269 111t111 269t-111 269t-269 111t-269 -111 t-111 -269z" />
<glyph unicode="c" horiz-adv-x="920" d="M38 500q0 215 152 367q153 153 368 153q178 0 320 -109v-199l-51 57q-100 111 -269 111q-158 0 -269 -111t-111 -269t111 -269t269 -111q169 0 269 111l51 57v-199q-142 -109 -320 -109q-214 0 -368 152q-152 154 -152 368z" />
<glyph unicode="d" horiz-adv-x="1118" d="M38 500q0 215 152 367q153 153 368 153q216 0 368 -152l16 -15q0 1 -4 6v561h140v-1440h-140v161q7 9 4 7t-16 -15q-153 -153 -368 -153q-214 0 -368 152q-152 154 -152 368zM178 500q0 -158 111 -269t269 -111t269 111t111 269t-111 269t-269 111t-269 -111t-111 -269z " />
<glyph unicode="e" horiz-adv-x="1122" d="M40 500q0 215 152 367q153 153 368 153q216 0 367 -153q153 -151 153 -387h-900q0 -138 111 -249t269 -111t269 111q36 36 67 90h154q-50 -115 -122 -188q-153 -153 -368 -153q-214 0 -368 152q-152 154 -152 368zM197 620h726q-18 73 -94 149q-111 111 -269 111 t-269 -111q-76 -76 -94 -149z" />
<glyph unicode="f" horiz-adv-x="718" d="M40 880v140h200q2 156 123 277q123 123 317 123v-140q-136 0 -218 -82q-80 -80 -82 -178h300v-140h-300v-900h-140v900h-200z" />
<glyph unicode="g" horiz-adv-x="1122" d="M42 500q0 215 152 367q153 153 368 153q216 0 368 -152l16 -15q0 1 -4 6v161h140v-920q0 -216 -153 -367q-152 -153 -367 -153h-237l58 140h179q158 0 269 111t111 269v41q7 9 4 7t-16 -15q-153 -153 -368 -153q-214 0 -368 152q-152 154 -152 368zM182 500 q0 -158 111 -269t269 -111t269 111t111 269t-111 269t-269 111t-269 -111t-111 -269z" />
<glyph unicode="h" horiz-adv-x="920" d="M42 -20v1440h140v-502l-19 -22l2 1q123 123 297 123t297 -123t123 -297v-620h-140v620q0 116 -82 198t-198 82t-198 -82t-82 -196v-622h-140z" />
<glyph unicode="i" horiz-adv-x="340" d="M100 -20v1040h140v-1040h-140zM100 1080v240h140v-240h-140z" />
<glyph unicode="j" horiz-adv-x="319" d="M-162 -280q136 0 218 82t82 198v880h-100v140h240v-1020q0 -174 -123 -297t-317 -123v140zM138 1080v240h140v-240h-140z" />
<glyph unicode="k" horiz-adv-x="845" d="M38 -20v1440h140v-830l431 430h197l-521 -520l521 -520h-198l-430 430v-430h-140z" />
<glyph unicode="l" horiz-adv-x="318" d="M38 150v1270h140v-1270q0 -12 8 -22q10 -8 92 -8v-140q-140 0 -190 50t-50 120z" />
<glyph unicode="m" horiz-adv-x="1461" d="M61 -20v1040h140v-77l-2 -2l-2 -2l-2 -2l-2 -2l-2 -2l-3 -3l-2 -2l-2 -2l-2 -2l-2 -2l-2 -2l-2 -2l-2 -2l-2 -2l-2 -2q108 108 261 108q154 0 262 -108q30 -30 38 -42q6 10 39 42q108 108 261 108q152 0 261 -109t109 -261v-670h-140v670q0 96 -67 163t-163 67t-163 -67 t-67 -163v-670h-140v670q0 96 -67 163t-163 67t-163 -67t-67 -163v-670h-140z" />
<glyph unicode="n" horiz-adv-x="920" d="M42 -20v1040h140v-102l-19 -22l2 1q123 123 297 123t297 -123t123 -297v-620h-140v620q0 116 -82 198t-198 82t-198 -82t-82 -196v-622h-140z" />
<glyph unicode="o" horiz-adv-x="1118" d="M40 500q0 215 152 367q153 153 368 153q216 0 367 -153q153 -151 153 -367q0 -215 -153 -368q-152 -152 -367 -152q-214 0 -368 152q-152 154 -152 368zM180 500q0 -158 111 -269t269 -111t269 111t111 269t-111 269t-269 111t-269 -111t-111 -269z" />
<glyph unicode="p" horiz-adv-x="1118" d="M38 -420v1440h140v-161l-4 -7q2 1 17 16q152 152 367 152q216 0 367 -153q153 -151 153 -367q0 -215 -153 -368q-152 -152 -367 -152q-214 0 -367 153q-19 19 -18 15q1 -1 5 -7v-561h-140zM178 500q0 -158 111 -269t269 -111t269 111t111 269t-111 269t-269 111 t-269 -111t-111 -269z" />
<glyph unicode="q" horiz-adv-x="1118" d="M38 500q0 215 152 367q153 153 368 153q216 0 368 -152l16 -15q0 1 -4 6v161h140v-1440h-140v561q7 9 4 7t-16 -15q-153 -153 -368 -153q-214 0 -368 152q-152 154 -152 368zM178 500q0 -158 111 -269t269 -111t269 111t111 269t-111 269t-269 111t-269 -111t-111 -269z " />
<glyph unicode="r" horiz-adv-x="520" d="M42 -20v1040h140v-102l-19 -22l2 1q123 123 317 123v-140q-136 0 -218 -82t-82 -196v-622h-140z" />
<glyph unicode="s" horiz-adv-x="722" d="M42 320h140q0 -109 52 -155t128 -46q75 0 127 46q53 47 53 110q0 62 -53 109q-52 46 -127 46q-131 0 -226 86q-94 85 -94 209t94 209q95 86 226 86t226 -86q94 -85 94 -254h-140q0 108 -53 155q-52 46 -127 46q-76 0 -128 -46t-52 -110q0 -63 52 -109t128 -46 q131 0 226 -86q94 -85 94 -209t-94 -209q-95 -86 -226 -86t-226 86q-94 85 -94 254z" />
<glyph unicode="t" horiz-adv-x="718" d="M40 880v140h200v400h140v-400h300v-140h-300v-730q0 -12 8 -22q10 -8 92 -8v-140q-140 0 -190 50t-50 120v730h-200z" />
<glyph unicode="u" horiz-adv-x="920" d="M42 400v620h140v-620q0 -116 82 -198t198 -82t198 82t82 196v622h140v-1040h-140v102l19 22l-2 -1q-123 -123 -297 -123t-297 123t-123 297z" />
<glyph unicode="v" horiz-adv-x="1039" d="M43 1020h151l328 -822l328 822h151l-415 -1040h-128z" />
<glyph unicode="w" horiz-adv-x="1839" d="M43 1020h151l328 -822l328 822h143l328 -822l328 822h151l-415 -1040h-128l-335 841l-336 -841h-128z" />
<glyph unicode="x" horiz-adv-x="1062" d="M41 -20l402 520l-402 520h178l314 -405l313 405h178l-403 -520l403 -520h-178l-313 405l-314 -405h-178z" />
<glyph unicode="y" horiz-adv-x="1039" d="M42 1020h151l328 -830l329 830h151l-570 -1440h-151l166 419z" />
<glyph unicode="z" horiz-adv-x="1020" d="M42 -20v128l734 772h-734v140h940v-128l-734 -772h734v-140h-940z" />
<glyph unicode="{" horiz-adv-x="671" d="M78 401v136h12q89 0 119 49q20 34 20 131v467q0 182 181 182h184v-90h-82q-72 0 -72 -137v-453q0 -109 -67 -164q-7 -6 -72 -45v-4l49 -29q90 -66 90 -180v-452q0 -138 72 -138h82v-90h-184q-181 0 -181 183v454q0 95 -24 133q-30 50 -127 47z" />
<glyph unicode="|" horiz-adv-x="454" d="M168 -242v1495h119v-1495h-119z" />
<glyph unicode="}" horiz-adv-x="671" d="M78 -326h82q71 0 71 138v452q0 72 35 125q18 27 46 47q21 14 31 20l28 17v4l-49 29q-91 66 -91 180v453q0 137 -71 137h-82v90h184q180 0 180 -182v-455q0 -100 25 -135q31 -48 127 -45v-135h-12q-90 0 -117 -49q-23 -41 -23 -132v-466q0 -183 -180 -183h-184v90z" />
<glyph unicode="~" horiz-adv-x="815" d="M78 651q0 30 14 56q56 104 193 104q68 0 178 -45q105 -43 153 -43q73 0 76 55h45q0 -70 -69 -112q-55 -33 -133 -33q-111 0 -193 41l-66 33q-36 18 -65 18q-84 0 -90 -74h-43z" />
<glyph unicode="&#xa2;" horiz-adv-x="1024" d="M121 -397l170 463q-170 138 -170 380q0 214 131 363q134 152 315 152q36 0 54 -3l161 435h82l-166 -449q199 -52 199 -207q0 -41 -35 -73q-34 -31 -78 -31q-42 0 -71 30.5t-29 73.5q0 70 -22 105l-236 -637q74 -74 168 -74q190 0 289 244l28 -17q-91 -378 -385 -378 q-86 0 -168 43l-155 -420h-82zM293 567q0 -167 76 -291l225 609q-21 6 -53 6q-111 0 -180 -93q-68 -92 -68 -231z" />
<glyph unicode="&#xa3;" horiz-adv-x="1085" d="M41 104q0 72 51 119q53 47 131 47q8 0 45 -5q38 -5 41 -5q10 81 10 164q0 123 -22 283h-211v69h201q-13 129 -13 187q0 195 99 321q111 141 307 141q127 0 201 -71q65 -62 65 -135q0 -33 -25 -61t-57 -28q-83 0 -86 125q-3 107 -129 107q-194 0 -194 -291q0 -97 22 -295 h279l2 -69h-275l-2 -99q-5 -192 -69 -368q175 -84 346 -84q187 0 233 163l35 -8q-15 -137 -90 -235q-85 -109 -225 -109q-186 0 -342 170q-71 -170 -197 -170q-54 0 -93 40q-38 41 -38 97zM106 117q0 -86 68 -86q90 0 127 145q-50 29 -94 29q-101 0 -101 -88z" />
<glyph unicode="&#xa5;" horiz-adv-x="1243" d="M0 1356v37h606v-37q-157 0 -157 -80q0 -44 28 -113l37 -94h315l50 115q18 40 18 78q0 94 -143 94v37h489v-37q-184 0 -262 -174l-51 -113h200v-78h-235l-94 -205h329v-77h-364l-47 -105v-383q0 -108 41 -146q43 -38 153 -38v-37h-620v37q118 0 156 37q40 37 40 147v359 l-55 129h-344v77h309l-88 205h-221v78h189l-58 133q-68 154 -221 154zM545 991l119 -301l131 301h-250z" />
<glyph unicode="&#xa8;" horiz-adv-x="583" d="M23 1585q0 38 32 65t76 27t76 -27q33 -27 33 -65t-33 -65q-32 -27 -76 -27t-76 27t-32 65zM344 1585q0 38 32 65q33 27 77 27t76 -27t32 -65t-32 -65t-76 -27t-77 27q-32 27 -32 65z" />
<glyph unicode="&#xa9;" horiz-adv-x="1680" d="M100 750q0 307 216 523q217 217 524 217t523 -217q217 -216 217 -523q0 -306 -217 -523t-523 -217q-307 0 -524 217q-216 216 -216 523zM220 750q0 -258 181 -439t439 -181q257 0 438 181q182 182 182 439q0 256 -182 438t-438 182q-257 0 -439 -182q-181 -181 -181 -438 zM340 750q0 207 146 353q147 147 354 147q171 0 300 -99v-168q-15 20 -31 36q-111 111 -269 111q-157 0 -269 -112q-111 -111 -111 -268q0 -158 111 -269t269 -111q157 0 269 112q19 19 31 35v-168q-129 -99 -300 -99q-206 0 -354 146q-146 148 -146 354z" />
<glyph unicode="&#xab;" horiz-adv-x="1081" d="M102 471l408 469h63l-262 -469l262 -471h-63zM508 471l407 469h64l-262 -469l262 -471h-64z" />
<glyph unicode="&#xad;" horiz-adv-x="737" d="M66 481v131h606v-131h-606z" />
<glyph unicode="&#xae;" horiz-adv-x="1518" d="M38 700q0 298 211 509t509 211t509 -211t211 -509t-211 -509t-509 -211t-509 211t-211 509zM178 700q0 -242 169 -411t411 -169q241 0 410 169q170 170 170 411q0 240 -170 410t-410 170q-241 0 -411 -170q-169 -169 -169 -410zM438 180v1040h320q132 0 226 -94t94 -226 t-94 -226q-69 -69 -131 -82l240 -412h-161l-229 400h-125v-400h-140zM578 720h180q75 0 127 52q53 53 53 128q0 74 -53 127t-127 53h-180v-360z" />
<glyph unicode="&#xb4;" horiz-adv-x="411" d="M23 1473l108 362h258l-309 -362h-57z" />
<glyph unicode="&#xb8;" horiz-adv-x="708" d="M199 -217q113 -25 170 -25q71 0 71 52q0 65 -121 53v125h52v-64q166 0 166 -110q0 -121 -166 -121q-68 0 -170 26z" />
<glyph unicode="&#xbb;" horiz-adv-x="1081" d="M102 0l263 471l-263 469h64l407 -469l-407 -471h-64zM508 0l262 471l-262 469h63q41 -50 107 -135q187 -237 301 -334l-408 -471h-63z" />
<glyph unicode="&#x2c6;" horiz-adv-x="884" d="M41 0v805h805v-805h-805z" />
<glyph unicode="&#x2dc;" horiz-adv-x="874" d="M158 1161q0 75 43 136q43 63 123 63q37 0 73 -19.5t59 -47.5q58 -66 101 -66q63 0 76 96q7 37 41 37q18 0 31.5 -12.5t13.5 -30.5q0 -73 -44 -137q-44 -62 -122 -62q-37 0 -72 19.5t-59 46.5q-57 67 -100 67q-64 0 -78 -96q-2 -14 -13 -25.5t-28 -11.5q-19 0 -32 12 t-13 31z" />
<glyph unicode="&#x591;" />
<glyph unicode="&#x592;" />
<glyph unicode="&#x593;" />
<glyph unicode="&#x594;" />
<glyph unicode="&#x595;" />
<glyph unicode="&#x596;" />
<glyph unicode="&#x597;" />
<glyph unicode="&#x598;" />
<glyph unicode="&#x599;" />
<glyph unicode="&#x59a;" />
<glyph unicode="&#x59b;" />
<glyph unicode="&#x59c;" />
<glyph unicode="&#x59d;" />
<glyph unicode="&#x59e;" />
<glyph unicode="&#x59f;" />
<glyph unicode="&#x5a0;" />
<glyph unicode="&#x5a1;" />
<glyph unicode="&#x5a3;" />
<glyph unicode="&#x5a4;" />
<glyph unicode="&#x5a5;" />
<glyph unicode="&#x5a6;" />
<glyph unicode="&#x5a7;" />
<glyph unicode="&#x5a8;" />
<glyph unicode="&#x5a9;" />
<glyph unicode="&#x5aa;" />
<glyph unicode="&#x5ab;" />
<glyph unicode="&#x5ac;" horiz-adv-x="698" />
<glyph unicode="&#x5ad;" horiz-adv-x="698" />
<glyph unicode="&#x5ae;" horiz-adv-x="698" />
<glyph unicode="&#x5af;" horiz-adv-x="698" />
<glyph unicode="&#x5b0;" horiz-adv-x="2" d="M-86 -254q0 37 25 62q24 24 60.5 23.5t61.5 -23.5q40 -38 17.5 -94.5t-78.5 -53.5q-36 2 -61 26.5t-25 59.5zM-86 -514q0 35 25.5 60.5t60.5 25.5q37 0 61 -24q25 -25 25 -61.5t-25 -61.5t-61 -25q-37 0 -61.5 24.5t-24.5 61.5z" />
<glyph unicode="&#x5b1;" horiz-adv-x="2" d="M-350 -254q0 86 84 86q37 0 61.5 -24.5t24.5 -61.5q0 -35 -25.5 -60.5t-60.5 -25.5q-84 0 -84 86zM-219 -510q0 35 25.5 59.5t60.5 24.5q86 0 86 -84q0 -37 -24.5 -61.5t-61.5 -24.5t-61.5 24.5t-24.5 61.5zM-84.5 -236.5q4.5 26.5 23.5 44.5q24 24 61 24t61.5 -24.5 t24.5 -61.5q0 -35 -25 -59.5t-61 -26.5q-27 -1 -48.5 15t-31 39t-5 49.5zM177.5 -254q-0.5 37 24.5 62t62 24.5t61 -24.5q25 -25 25 -61.5t-25 -61.5t-61.5 -25t-61.5 25q-24 24 -24.5 61zM178 -510q0 84 86 84t86 -84q0 -37 -24.5 -61.5t-61.5 -24.5t-61.5 24.5t-24.5 61.5 z" />
<glyph unicode="&#x5b2;" horiz-adv-x="2" d="M-336 -199h395v-110h-395v110zM164 -254q0 38 24 62q25 24 61.5 24t61.5 -24q40 -38 17.5 -94.5t-78.5 -53.5q-36 2 -61 26.5t-25 59.5zM164 -510q0 35 25.5 59.5t60.5 24.5q86 0 86 -84q0 -37 -24.5 -61.5t-61.5 -24.5t-61.5 24.5t-24.5 61.5z" />
<glyph unicode="&#x5b3;" horiz-adv-x="2" d="M-334 -199h395v-110h-159q16 -118 16 -156v-117h-111v117l11 90l6 66h-158v110zM166 -254q0 86 84 86q37 0 61.5 -24.5t24.5 -61.5t-24.5 -61.5t-61.5 -24.5q-35 0 -59.5 25.5t-24.5 60.5zM166 -510q0 35 24.5 59.5t59.5 24.5q86 0 86 -84q0 -37 -24.5 -61.5t-61.5 -24.5 q-84 0 -84 86z" />
<glyph unicode="&#x5b4;" horiz-adv-x="2" d="M-86 -254q0 37 25 62q24 24 60.5 23.5t61.5 -23.5q40 -38 17.5 -94.5t-78.5 -53.5q-36 2 -61 26.5t-25 59.5z" />
<glyph unicode="&#x5b5;" horiz-adv-x="2" d="M-219 -254q0 86 84 86q37 0 62.5 -24.5t25.5 -61.5t-25.5 -61.5t-62.5 -24.5q-35 0 -59.5 25.5t-24.5 60.5zM46.5 -254q-0.5 37 24.5 62q24 24 62 24q37 0 61.5 -24.5t24.5 -61.5q0 -35 -25.5 -60.5t-60.5 -25.5q-37 0 -62 25q-24 24 -24.5 61z" />
<glyph unicode="&#x5b6;" horiz-adv-x="2" d="M-219 -254q0 86 84 86q37 0 62.5 -24.5t25.5 -61.5t-25.5 -61.5t-62.5 -24.5q-35 0 -59.5 25.5t-24.5 60.5zM-86 -510q0 84 86 84t86 -84q0 -37 -24.5 -61.5t-61.5 -24.5t-61.5 24.5t-24.5 61.5zM46.5 -254q-0.5 37 24.5 62q24 24 62 24q37 0 61.5 -24.5t24.5 -61.5 q0 -35 -25.5 -60.5t-60.5 -25.5q-37 0 -62 25q-24 24 -24.5 61z" />
<glyph unicode="&#x5b7;" horiz-adv-x="2" d="M-199 -199h398v-110h-398v110z" />
<glyph unicode="&#x5b8;" horiz-adv-x="2" d="M-199 -199h398v-110h-160l12 -125l4 -31v-117h-110v117l14 137l2 19h-160v110z" />
<glyph unicode="&#x5b9;" horiz-adv-x="0" d="M-88 1274q0 41 28.5 69.5t69.5 28.5q42 0 71.5 -28.5t29.5 -69.5t-30 -70.5t-71 -29.5t-69.5 29.5t-28.5 70.5z" />
<glyph unicode="&#x5bb;" horiz-adv-x="2" d="M-82 -252q0 32 24 56t56 24q35 0 60.5 -26.5t25.5 -61.5q0 -76 -78 -76q-36 0 -62 24.5t-26 59.5zM37 -461q0 32 23 56t55 24q35 0 60.5 -26.5t25.5 -61.5q0 -32 -24 -56t-56 -24q-35 0 -59.5 26t-24.5 62zM154 -674q0 33 22.5 57.5t54.5 24.5q35 0 60.5 -26.5 t25.5 -61.5q0 -32 -23.5 -56t-55.5 -24q-35 0 -59.5 25.5t-24.5 60.5z" />
<glyph unicode="&#x5bc;" horiz-adv-x="0" d="M256 502q0 41 28 70q29 30 70 30t71 -30q30 -29 30 -70t-30 -70t-71 -29.5t-70 29.5q-28 29 -28 70z" />
<glyph unicode="&#x5bd;" horiz-adv-x="2" d="M-29 -209h58v-260h-58v260z" />
<glyph unicode="&#x5be;" horiz-adv-x="487" d="M70 965v100h344v-100h-344z" />
<glyph unicode="&#x5bf;" horiz-adv-x="2" d="M-260 1341v111h520v-111h-520z" />
<glyph unicode="&#x5c0;" horiz-adv-x="344" d="M123 -246v1530h98v-1530h-98z" />
<glyph unicode="&#x5c1;" />
<glyph unicode="&#x5c2;" />
<glyph unicode="&#x5c3;" horiz-adv-x="473" d="M113 96q0 51 36 87t87 36t87 -36q37 -36 37 -87t-37 -88q-36 -37 -87 -37t-87 37q-36 38 -36 88zM113 690q0 51 36 87t87 36t87 -36q37 -36 37 -87t-37 -88q-36 -37 -87 -37t-87 37q-36 38 -36 88z" />
<glyph unicode="&#x5c4;" />
<glyph unicode="&#x5d0;" horiz-adv-x="950" d="M47 1040q0 50 84 50q34 0 119 -17q239 -315 421 -611q18 19 18 83q0 36 -0.5 70.5t-0.5 60.5q0 70 -7 183t-7 183q0 19 20.5 32t44.5 13q44 0 127 -43q2 -36 2 -81q0 -249 -29 -397t-107 -205q28 -47 87 -168.5t96 -192.5h-237q-134 305 -330 602q-42 -60 -70 -182 q-28 -121 -28 -209q0 -41 4 -98l4 -113h-192v84q0 183 55 336q56 158 176 272q-13 22 -81 102q-61 74 -118 150q-51 70 -51 96z" />
<glyph unicode="&#x5d1;" horiz-adv-x="915" d="M31 895q185 188 362 188q92 0 153.5 -32t113.5 -107q35 -50 52 -126q15 -66 17.5 -149.5t-1.5 -155.5q-5 -78 -1 -150.5t17 -128t53.5 -92t107.5 -42.5l-53 -100h-811v141l545 4q-72 119 -72 226q0 87 1 158t1 159q0 94 -14 154q-14 65 -48 97.5t-104 35.5q-43 1 -93 -33 q-44 -30 -79 -71l-60 -71q-26 -32 -40 -32q-37 0 -47 127z" />
<glyph unicode="&#x5d2;" horiz-adv-x="722" d="M31 895q99 101 168 146.5t128 39.5q49 -7 88.5 -21.5t68.5 -34.5t52 -46t37.5 -56.5t25 -66t15 -74.5t7.5 -81.5t3 -87.5v-92q0 -22 -0.5 -51.5t-0.5 -37.5q0 -272 69 -432h-157l-72 309q-34 -133 -123 -223q-87 -90 -215 -90q-41 0 -57 4l-7 104q167 29 257 140 q91 114 90 284l-2 258q-1 70 -32.5 113t-91.5 43q-24 -4 -46 -17.5t-31.5 -23.5t-26.5 -30l-60 -71q-26 -32 -40 -32q-37 0 -47 127z" />
<glyph unicode="&#x5d3;" horiz-adv-x="970" d="M39 930q-35 63 41 160h16h38t60 -0.5t92.5 -0.5h124.5q426 -2 489 -4q2 -2 12.5 -20.5t22 -44.5t7 -49t-30.5 -29q-64 -13 -118 -34.5t-100 -54t-72 -80t-26 -105.5l4 -668h-219v528q0 99 56 178q22 32 69 71q43 35 84 61q35 23 104 63h-632q-11 8 -22 29z" />
<glyph unicode="&#x5d4;" horiz-adv-x="984" d="M31 895q185 188 362 188h-1h-1h-1h-1h-1h-1h-1h-1h-1h-1h-1h-1h-1h-1h-1h-1h1h1h1h1h1h1h1h1h1h1h1h1h1h1h1h1h1h1h1h1h1h1h1h1h1h1h1h1h1h1h1h1h1h1h1h1h1h1h1h1h1h1h1h1h1h1h1h1h1h1h1h1h1h1h1h10q200 0 330 -90q67 -46 104 -124t37 -179v-690h-215v688q0 130 -84 208 q-83 79 -215 79q-95 0 -177 -62q-18 -14 -29 -24.5t-13 -14.5l-2 -3l-60 -71q-26 -32 -40 -32q-37 0 -47 127zM102 0v455q-6 42 13 66.5t53.5 30.5t65 5t59.5 -7l24 -5l-4 -545h-211z" />
<glyph unicode="&#x5d5;" horiz-adv-x="444" d="M72 1016q0 69 135 69q28 0 69 -4q69 -204 72 -403l10 -678h-225v631q0 157 -4 194q-3 37 -30 107q-27 72 -27 84z" />
<glyph unicode="&#x5d6;" horiz-adv-x="663" d="M114 1010q-1 10 2 24.5t11 32.5l463 17q5 0 15 -3q34 -19 -11 -98q-82 -14 -148 -72q-43 -39 -63.5 -90t-28.5 -129q-8 -72 2 -205l29 -487h-209q-1 219 -1 303q0 218 5 254q22 158 68.5 260t138.5 160l-203 -8q-4 0 -6 -0.5t-9.5 0t-13 1.5t-13.5 3.5t-13 7t-9.5 12 t-5.5 17.5z" />
<glyph unicode="&#x5d7;" horiz-adv-x="1015" d="M37 995q0 23 23 41t58 28q34 10 75 14q57 7 116 7q144 0 307 -34q89 -19 161 -56t106 -86q69 -101 69 -239v-670h-215v668q0 125 -89 202q-88 78 -216 78q-45 0 -96 -14q-50 -14 -68 -43q25 -134 25 -234l4 -657h-199q0 7 2 229q2 168 0 285q-2 136 -8 229 q-9 139 -51 236q-4 11 -4 16z" />
<glyph unicode="&#x5d8;" horiz-adv-x="1009" d="M23 1036q0 23 14.5 36t38.5 13q45 0 133 -47q63 -188 103 -419q37 -217 73 -519q178 1 270 97q41 43 67 108q44 109 44 291q0 115 -26 192q-48 138 -216 138q-1 0 -11 -0.5t-18 -0.5h-15q-13 2 -20 4t-13.5 10t-6.5 22q0 49 43 85q43 37 95 37q109 0 200 -51 q123 -68 164 -179q37 -99 37 -241q0 -140 -50 -258t-140 -198q-90 -79 -211 -122.5t-259 -43.5q-37 0 -77 6l-63 291q-80 371 -107 496q-49 233 -49 253z" />
<glyph unicode="&#x5d9;" horiz-adv-x="413" d="M47 1018q0 69 209 69q15 -44 38 -98q64 -143 64 -219q0 -60 -41 -120q-16 -24 -42 -59q-30 -39 -37 -50l-129 20q18 53 22 74q6 25 6 70q0 49 -23 123q-22 72 -45 127q-22 54 -22 63z" />
<glyph unicode="&#x5da;" horiz-adv-x="854" d="M31 895q185 188 362 188q84 0 130.5 -21t104.5 -69q118 -99 118 -299v-1001l-195 -2v1001q0 10 0.5 35t0.5 36t-2 31t-6 32.5t-12 28.5t-20 30q-43 49 -74.5 69.5t-84.5 21.5q-33 5 -98 -33q-32 -19 -77 -72l-60 -71q-26 -32 -40 -32q-37 0 -47 127z" />
<glyph unicode="&#x5db;" horiz-adv-x="817" d="M31 895q185 188 362 188l-43 -108q-43 1 -93 -33q-44 -30 -79 -71l-60 -71q-26 -32 -40 -32q-37 0 -47 127zM33 109l67 81q36 -30 51 -41.5t46.5 -32t59.5 -28.5t59 -8q55 0 100 28.5t73 73t47 101.5t26.5 109.5t7.5 101.5q0 53 -5 109t-21 126t-41 122.5t-70.5 89 t-104.5 36.5l33 106q75 0 142.5 -36.5t116 -96.5t84.5 -134t54 -150t18 -144q0 -86 -32 -181t-86.5 -175.5t-137 -133t-174.5 -52.5q-103 0 -166 27.5t-147 101.5z" />
<glyph unicode="&#x5dc;" horiz-adv-x="775" d="M-40 1432q-3 21 14.5 32t51.5 11q55 0 154 -35v-355h221q88 0 167 -55q80 -56 124 -138q21 -39 33.5 -107t12.5 -118q0 -121 -18 -190t-59 -137q-115 -189 -365 -360l-39 51q265 226 265 520q0 63 -3 112q-4 65 -17 126q-12 59 -43 113q-47 81 -142 81h-290z" />
<glyph unicode="&#x5dd;" horiz-adv-x="1064" d="M98 997q0 27 31.5 47.5t83.5 28.5q85 14 149 14q79 0 134 -4q147 -9 255 -48q127 -45 192 -132q75 -98 75 -254v-649h-854q0 112 1 225q1 171 0 285q-2 127 -7 225q-7 151 -52 236q-8 21 -8 26zM354 862q25 -134 25 -225l2 -537h422v527q0 112 -74 198t-184 86 q-138 0 -191 -49z" />
<glyph unicode="&#x5de;" horiz-adv-x="953" d="M38 0q0 138 1 214.5t9 194.5t23 214q5 34 25.5 82.5t38.5 80.5l18 31q-4 11 -48.5 90t-44.5 92q0 21 22.5 37.5t55.5 25.5t61.5 13.5t49.5 5.5l82 -163q141 160 342 172q121 -115 196 -282.5t75 -332.5q0 -128 -57 -237t-162.5 -175t-237.5 -66q-24 0 -72 4l-1 117 q83 0 146.5 28.5t101.5 79.5t56.5 115t18.5 140q0 145 -41.5 253t-145.5 188q-129 -9 -201 -89q-29 -32 -51.5 -79t-37 -91.5t-25 -113t-15.5 -112.5t-7.5 -123.5t-3 -112t0 -111t0.5 -90.5h-172z" />
<glyph unicode="&#x5df;" horiz-adv-x="425" d="M98 993q-27 42 23 65q52 24 114 25l64 2q72 -210 72 -423v-1010l-215 -2v964q0 152 -4 193q-7 91 -54 186z" />
<glyph unicode="&#x5e0;" horiz-adv-x="636" d="M47 0v150l334 -3l4 594q1 103 -51 149t-154 46h-28q-41 -6 -49 30q-8 39 5 77l13 40q72 0 126 -2q106 -2 163 -43q89 -63 129 -166q26 -66 26 -206l2 -666h-520z" />
<glyph unicode="&#x5e1;" horiz-adv-x="944" d="M46 649v113v4v227q0 92 57 92h562q67 0 116.5 -35.5t75 -93t37 -116.5t11.5 -121q0 -209 -62 -384q-35 -99 -87 -174q-118 -171 -306 -171q-64 0 -106.5 14.5t-93.5 44.5q-43 26 -75 70q-38 54 -55 85q-20 37 -36 104q-12 53 -22 109q-11 65 -14 113q-2 33 -2 119z M251 645q0 -40 2 -75q3 -55 6 -87l12 -85q11 -73 50 -158q29 -61 56 -87t81 -28h14t12.5 1.5t9.5 2t10 4t8.5 4t10.5 5.5t11 6q43 23 69.5 56.5t45.5 87.5q20 58 29 100q10 47 14 111q5 75 5 101q1 23 1 93v8q0 38 -1 53q-2 75 -18 117q-34 98 -118 98h-310v-264v-64z" />
<glyph unicode="&#x5e2;" horiz-adv-x="968" d="M72 -80l194 96q64 32 193 95l-54 125l-100 231l-106 250l-90 218q-35 86 -35 99q0 51 90 51q66 0 143 -20l258 -895q87 78 117 168q31 90 31 223q0 53 -7 128q-9 82 -22 167l-18 127q-4 26 -4 27q0 75 106 75q54 0 102 -14l11 -122q16 -184 16 -271q0 -112 -20 -209 q-19 -95 -48 -165q-27 -71 -88 -135q-67 -72 -106 -106q-43 -38 -141 -92q-79 -44 -155 -80q-65 -31 -181 -81z" />
<glyph unicode="&#x5e3;" horiz-adv-x="1039" d="M109 647q0 124 44.5 223t133.5 158q55 36 102 45q46 10 129 10q196 0 297 -151q93 -140 93 -340v-838l-211 -2q-5 775 -5 834q0 31 -2 73q-2 39 -7 81q-4 40 -18 83q-21 65 -56 103t-95 37q-104 -3 -151 -58q-64 -74 -62 -233q0 -46 4 -84q7 -50 50 -127q46 -83 46 -113 q0 -26 -30 -26q-50 0 -152 61q-67 39 -89 104q-21 61 -21 160z" />
<glyph unicode="&#x5e4;" horiz-adv-x="1007" d="M72 143h80q189 0 271 7q146 14 214 87q92 95 92 343q0 29 -2 71q-2 81 -21 146q-49 166 -202 166q-92 0 -162 -96q-70 -95 -70 -201q0 -48 39 -137q39 -87 39 -113q0 -33 -37 -33q-48 0 -120 41q-54 30 -80 104q-25 71 -25 146q0 122 63 216q128 193 376 193 q96 0 177.5 -41.5t134.5 -113.5q109 -147 109 -340q0 -298 -132 -443q-130 -145 -415 -145h-327z" />
<glyph unicode="&#x5e5;" horiz-adv-x="1026" d="M135 1042q0 41 94 41q55 0 101 -8l224 -453q15 -31 45 -109l36 90q18 44 34 91q28 89 28 188q0 30 -9 89q-9 60 -9 89q0 55 82 55q65 0 139 -24q2 -34 2 -76q0 -167 -65 -353q-32 -92 -87.5 -166.5t-122.5 -113.5q2 -15 15.5 -65t23 -118t10.5 -161l-2 -380l-215 -4 q0 125 -1 225t-1 225q0 249 -64 381q-131 273 -155 324q-103 216 -103 233z" />
<glyph unicode="&#x5e6;" horiz-adv-x="956" d="M61 0l2 164h506q-107 172 -291 502q-178 319 -178 366q0 51 90 51q67 0 144 -20l38 -118l43 -132l42 -115q48 -133 144 -287q2 139 28 259q13 56 21 98l22 111l20 102q21 106 119 106q45 0 86 -18l-21 -114q-9 -47 -27 -123q-16 -73 -38 -135q-6 -18 -22.5 -76.5 t-24.5 -81.5q-30 -89 -53 -131.5t-63 -70.5q39 -64 88 -144l118 -193h-793z" />
<glyph unicode="&#x5e7;" horiz-adv-x="1024" d="M45 1030q0 42 103 53q72 7 87 7h40h57q49 0 117 -4q143 -10 223 -40q175 -66 248 -219q57 -123 57 -268q0 -234 -131 -347q-118 -103 -346 -149l-74 15q53 39 64 47q52 41 62 49q39 32 64 57q27 29 53 60q28 34 46 68q39 80 39 155q0 176 -52 277q-21 41 -36 64 q-12 19 -37 43q-37 37 -123 44q-21 1 -28 1q-87 0 -169 -28q25 -140 25 -239q0 -149 -3 -314q-1 -82 -7 -376q-1 -57 -3.5 -166.5t-3.5 -147.5l-194 2l-2 940q0 130 -6 193q-11 107 -54 186q-16 26 -16 37z" />
<glyph unicode="&#x5e8;" horiz-adv-x="864" d="M31 895q185 188 362 188q187 0 292.5 -103.5t105.5 -289.5v-690h-216v688q0 150 -56 218q-47 58 -156 67q-59 1 -106 -31q-44 -30 -79 -71l-60 -71q-26 -32 -40 -32q-37 0 -47 127z" />
<glyph unicode="&#x5e9;" horiz-adv-x="1189" d="M37 1010v12q0 61 84 61q16 0 41 -3t57 -8.5t41 -6.5q-8 -132 30 -344q37 -209 87 -389q127 169 127 366q0 58 -18 168q-17 113 -17 152q0 74 80 74q28 0 71 -9l72 -16q2 -50 2 -113q0 -85 -16 -241q-16 -169 -69 -273q-55 -108 -179 -235l29 -88q126 39 206 123 q82 86 154 225q105 199 105 512q0 46 9 73q12 35 62 35q35 0 70 -11l39 -12l33 -9l-4 -77q-1 -22 -2.5 -51.5t-1.5 -34.5q-7 -95 -21 -155q-39 -175 -101.5 -306t-156.5 -233q-195 -209 -547 -216q-128 293 -197 546t-69 484z" />
<glyph unicode="&#x5ea;" horiz-adv-x="1098" d="M9 114l38 2q3 0 22 0.5t24 0.5q98 4 133.5 49t35.5 151q0 259 -12 433q-9 149 -51 235q-9 18 -9 25q0 25 30 43.5t79 26.5q74 12 141 12h41.5h39.5t33 -1t41 -3t42 -6t56 -10q95 -18 169.5 -55.5t108.5 -86.5q44 -64 67 -123t22 -143l-12 -664h-203l4 412q1 109 1 126 q0 75 -5 124q-11 114 -79 199q-76 94 -178 102q-87 0 -169 -28q8 -42 14 -102t9 -99l2 -38q6 -76 8 -101q8 -100 9 -201q2 -184 2 -208q0 -55 -21 -97.5t-52 -65.5q-27 -20 -82 -30q-47 -9 -87 -11q-44 -2 -97 -2h-18h-94z" />
<glyph unicode="&#x5f0;" />
<glyph unicode="&#x5f1;" />
<glyph unicode="&#x5f2;" />
<glyph unicode="&#x5f3;" horiz-adv-x="333" d="M102 752v395h170l-102 -395h-68z" />
<glyph unicode="&#x5f4;" horiz-adv-x="641" d="M102 752v395h191l-103 -395h-88zM389 752v395h191l-103 -395h-88z" />
<glyph unicode="&#x2000;" horiz-adv-x="917" />
<glyph unicode="&#x2001;" horiz-adv-x="1835" />
<glyph unicode="&#x2002;" horiz-adv-x="917" />
<glyph unicode="&#x2003;" horiz-adv-x="1835" />
<glyph unicode="&#x2004;" horiz-adv-x="611" />
<glyph unicode="&#x2005;" horiz-adv-x="458" />
<glyph unicode="&#x2006;" horiz-adv-x="305" />
<glyph unicode="&#x2007;" horiz-adv-x="305" />
<glyph unicode="&#x2008;" horiz-adv-x="229" />
<glyph unicode="&#x2009;" horiz-adv-x="367" />
<glyph unicode="&#x200a;" horiz-adv-x="101" />
<glyph unicode="&#x200c;" horiz-adv-x="43" d="M0 0v1628h45v-1628h-45z" />
<glyph unicode="&#x200d;" horiz-adv-x="43" d="M-115 1495l111 109l-111 106l33 31l105 -109l106 109l31 -31l-107 -106l107 -109l-31 -29l-84 84v-1550h-45v1550l-82 -84z" />
<glyph unicode="&#x200e;" horiz-adv-x="43" d="M0 0v1628h217l-82 82l31 31l137 -137l-137 -138l-31 31l86 86h-176v-1583h-45z" />
<glyph unicode="&#x200f;" horiz-adv-x="43" d="M-256 1604l137 137l33 -31l-84 -82h217v-1628h-45v1583h-174l86 -86l-33 -31z" />
<glyph unicode="&#x2010;" horiz-adv-x="737" d="M66 481v131h606v-131h-606z" />
<glyph unicode="&#x2011;" horiz-adv-x="737" d="M66 481v131h606v-131h-606z" />
<glyph unicode="&#x2012;" horiz-adv-x="737" d="M66 481v131h606v-131h-606z" />
<glyph unicode="&#x2013;" horiz-adv-x="737" d="M66 481v131h606v-131h-606z" />
<glyph unicode="&#x2014;" horiz-adv-x="870" d="M66 481v131h739v-131h-739z" />
<glyph unicode="&#x2018;" horiz-adv-x="333" d="M59 1147h191v-395h-88z" />
<glyph unicode="&#x2019;" horiz-adv-x="333" d="M102 752v395h191l-103 -395h-88z" />
<glyph unicode="&#x201a;" horiz-adv-x="405" d="M102 143h191l-103 -395h-88v395z" />
<glyph unicode="&#x201c;" horiz-adv-x="641" d="M102 752v395h191l-103 -395h-88zM389 752v395h191l-103 -395h-88z" />
<glyph unicode="&#x201d;" horiz-adv-x="641" d="M102 752v395h191l-103 -395h-88zM389 752v395h191l-103 -395h-88z" />
<glyph unicode="&#x201e;" horiz-adv-x="641" d="M102 182h191l-103 -395h-88v395zM389 182h191l-103 -395h-88v395z" />
<glyph unicode="&#x2020;" horiz-adv-x="1177" d="M82 96q0 51 36 87t87 36q50 0 88 -36q37 -36 37 -87t-37 -88t-88 -37t-87 37q-36 38 -36 88zM449 96q0 51 36 87q37 36 88 36t87 -36t36 -87q0 -50 -36 -88q-36 -37 -87 -37t-88 37q-36 38 -36 88zM817 96q0 51 36 87t87 36q50 0 88 -36q37 -36 37 -87t-37 -88t-88 -37 t-87 37t-36 88z" />
<glyph unicode="&#x2021;" horiz-adv-x="1095" d="M207 373l338 428l327 -428l-327 -426z" />
<glyph unicode="&#x2022;" horiz-adv-x="919" d="M41 403q0 175 123 295q127 121 299 121q169 0 295 -123q123 -122 123 -293t-123 -297q-122 -122 -295 -122q-176 0 -299 122q-123 123 -123 297z" />
<glyph unicode="&#x2026;" horiz-adv-x="950" d="M96 418l758 373v-748z" />
<glyph unicode="&#x202f;" horiz-adv-x="367" />
<glyph unicode="&#x2030;" horiz-adv-x="950" d="M127 465q0 131 102 223q103 94 250 94q145 0 248 -94q102 -94 102 -223q0 -130 -104 -225t-246 -95q-146 0 -250 95q-102 92 -102 225z" />
<glyph unicode="&#x2039;" horiz-adv-x="675" d="M102 471l408 469h63l-262 -469l262 -471h-63z" />
<glyph unicode="&#x203a;" horiz-adv-x="675" d="M102 0l263 471l-263 469h64l407 -469l-407 -471h-64z" />
<glyph unicode="&#x205f;" horiz-adv-x="458" />
<glyph unicode="&#x20a7;" />
<glyph unicode="&#x20aa;" horiz-adv-x="1488" d="M88 53v959q0 20 17.5 36.5t37.5 16.5h387q60 0 81 -1q36 0 79 -4q56 -5 82 -11q88 -18 139 -55q65 -47 88 -117q35 -102 35 -369q0 -114 -9 -143q-8 -29 -46 -29h-96q-21 0 -38.5 17t-17.5 38v209q0 71 -2 125q-2 44 -10 90q-9 47 -26 68q-17 19 -51 39q-31 19 -76 24.5 t-127 5.5h-242v-895q0 -20 -17.5 -38.5t-37.5 -18.5h-97q-23 0 -38 15.5t-15 37.5zM444 55v680q0 21 17.5 38.5t38.5 17.5h94q20 0 36.5 -18.5t16.5 -39.5v-620h244q77 0 139 10q77 14 113 61q17 18 30 82q5 20 6 56q2 50 2 66q1 19 1 79v545q0 20 18 36.5t39 16.5h94 q20 0 36.5 -17.5t16.5 -37.5v-547q0 -196 -30 -275q-43 -113 -156 -151q-42 -14 -73 -21q-24 -6 -82 -11q-55 -5 -81 -5h-81h-385q-20 0 -37 17.5t-17 37.5z" />
<glyph unicode="&#x20ac;" horiz-adv-x="1259" d="M59 391l70 123h111l-2 41q-1 9 2 47h-181l70 123h133q59 186 213 301q156 117 350 117q217 0 381 -139l-63 -109q-131 125 -318 125q-140 0 -256 -80q-117 -80 -176 -215h656l-74 -123h-613q-3 -31 -2 -47l2 -41h564l-72 -123h-465q59 -139 174 -220t262 -81 q187 0 318 125l28 -53l35 -56q-164 -139 -381 -139q-198 0 -352 117q-153 116 -213 307h-201z" />
<glyph unicode="&#x2122;" horiz-adv-x="1327" d="M42 1380v140h440v-140h-150v-600h-140v600h-150zM335 780l212 740h130l135 -472l135 472h130l212 -740h-142l-132 469l-138 -469h-130l-132 469l-138 -469h-142z" />
<glyph unicode="&#xe000;" horiz-adv-x="1020" d="M0 0v1020h1020v-1020h-1020z" />
<glyph unicode="&#xfb01;" horiz-adv-x="1101" />
<glyph unicode="&#xfb02;" horiz-adv-x="1202" />
<glyph unicode="&#xfb1d;" />
<glyph unicode="&#xfb1e;" />
<glyph unicode="&#xfb1f;" />
<glyph unicode="&#xfb20;" />
<glyph unicode="&#xfb21;" />
<glyph unicode="&#xfb22;" />
<glyph unicode="&#xfb23;" />
<glyph unicode="&#xfb24;" />
<glyph unicode="&#xfb25;" />
<glyph unicode="&#xfb26;" />
<glyph unicode="&#xfb27;" />
<glyph unicode="&#xfb28;" />
<glyph unicode="&#xfb29;" />
<glyph unicode="&#xfb2a;" />
<glyph unicode="&#xfb2b;" />
<glyph unicode="&#xfb2c;" />
<glyph unicode="&#xfb2d;" />
<glyph unicode="&#xfb2e;" />
<glyph unicode="&#xfb2f;" />
<glyph unicode="&#xfb30;" />
<glyph unicode="&#xfb31;" />
<glyph unicode="&#xfb32;" />
<glyph unicode="&#xfb33;" />
<glyph unicode="&#xfb34;" />
<glyph unicode="&#xfb35;" />
<glyph unicode="&#xfb36;" />
<glyph unicode="&#xfb38;" />
<glyph unicode="&#xfb39;" />
<glyph unicode="&#xfb3a;" />
<glyph unicode="&#xfb3b;" />
<glyph unicode="&#xfb3c;" />
<glyph unicode="&#xfb3e;" />
<glyph unicode="&#xfb40;" />
<glyph unicode="&#xfb41;" />
<glyph unicode="&#xfb43;" />
<glyph unicode="&#xfb44;" />
<glyph unicode="&#xfb46;" />
<glyph unicode="&#xfb47;" />
<glyph unicode="&#xfb48;" />
<glyph unicode="&#xfb49;" />
<glyph unicode="&#xfb4a;" />
<glyph unicode="&#xfb4b;" />
<glyph unicode="&#xfb4c;" />
<glyph unicode="&#xfb4d;" />
<glyph unicode="&#xfb4e;" />
<glyph unicode="&#xfb4f;" horiz-adv-x="698" d="M156 713q0 82 54 136t136 54t136 -54q55 -54 55 -136q0 -79 -57 -136q-56 -57 -134 -57q-80 0 -135 57q-55 56 -55 136z" />
</font>
</defs>
</svg>
